# xmcd
# Track frame offsets:
# 151
# 9888
# 19399
# 29620
# 37965
# 53103
# 66234
# 77648
# 89672
# 103788
#
# Disc length: 1599 seconds
# Revision: 0
# Processed by: cddbd v1.5PL3 Copyright (c) Steve Scherf et al.
# Submitted via: VisiTrax 2.9.5.181 - For more info visit www.synapsa.com
#
DISCID=7b063d0a
DTITLE=Anne Murray - Great Memories
DYEAR=2000
DGENRE=Country
TTITLE0=It's All Over
TTITLE1=Some Birds
TTITLE2=For Baby
TTITLE3=Paths of Victory
TTITLE4=From Both Sides Now
TTITLE5=Buffalo in the Park
TTITLE6=Last Thing on My Mind
TTITLE7=All the Time
TTITLE8=David's Song
TTITLE9=There Goes My Everything
EXTD=Classic World CWP 9929 c. 2000
EXTT0=
EXTT1=
EXTT2=
EXTT3=
EXTT4=
EXTT5=
EXTT6=
EXTT7=
EXTT8=
EXTT9=
PLAYORDER=
